<?xml version="1.0" encoding="UTF-8"?>
<svg id="Laag_1" data-name="Laag 1" xmlns="http://www.w3.org/2000/svg" viewBox="0 0 320 60">
    <defs>
        <style>
            .cls-1 {
            fill: #fff;
            stroke-width: 0px;
            }
        </style>
    </defs>
    <path class="cls-1" d="M42.92,36.07c-.94-1.87-2.22-3.44-3.84-4.75-1.62-1.3-3.42-2.39-5.45-3.25-2.01-.86-4.11-1.56-6.27-2.07l-5.39-1.36c-1.58-.41-3.13-.92-4.63-1.55-1.52-.62-2.76-1.44-3.72-2.46-.97-1.02-1.46-2.33-1.46-3.93,0-1.45.42-2.74,1.24-3.88.83-1.14,2.02-2.02,3.59-2.67,1.56-.65,3.42-.97,5.6-.97,3.13,0,5.66.67,7.58,2.03s3.02,3.27,3.27,5.75h10.11c-.07-3.25-.99-6.13-2.75-8.64-1.76-2.51-4.19-4.47-7.28-5.89-3.11-1.42-6.71-2.13-10.81-2.13s-7.64.71-10.83,2.13c-3.19,1.42-5.7,3.4-7.54,5.95-1.84,2.54-2.75,5.52-2.75,8.93,0,4.17,1.37,7.49,4.11,9.98,2.74,2.49,6.49,4.35,11.24,5.57l6.55,1.7c2.09.53,3.91,1.11,5.47,1.79,1.55.67,2.76,1.5,3.64,2.46.87.97,1.32,2.2,1.32,3.7,0,1.66-.5,3.11-1.48,4.35-.98,1.24-2.33,2.2-4.07,2.91-1.73.69-3.73,1.04-6,1.04s-4.15-.34-5.91-1c-1.77-.67-3.19-1.68-4.29-3.01-1.08-1.33-1.71-3.01-1.86-5.02H0c.15,3.82,1.16,7.07,3.02,9.74,1.87,2.68,4.44,4.71,7.76,6.11,3.3,1.39,7.2,2.09,11.7,2.09s8.53-.72,11.79-2.17c3.25-1.45,5.74-3.45,7.48-6.03,1.73-2.57,2.6-5.53,2.6-8.89,0-2.51-.48-4.69-1.42-6.55Z"/>
    <path class="cls-1" d="M94.87,14.44c-2.22-4.32-5.39-7.62-9.51-9.92-4.12-2.3-9.05-3.45-14.78-3.45h-15.31v9.08h14.69c3.92,0,7.21.72,9.88,2.18,2.66,1.46,4.66,3.65,6,6.57,1.34,2.93,2.01,6.59,2.01,11.01s-.67,8.1-2.03,11.04c-1.36,2.95-3.38,5.15-6.08,6.61-2.7,1.46-6.05,2.19-10.06,2.19h-14.11v9.07h14.65c5.86,0,10.88-1.16,15.05-3.47,4.18-2.31,7.37-5.64,9.59-9.96,2.22-4.33,3.33-9.48,3.33-15.48s-1.11-11.15-3.33-15.47ZM50.61,1.06v57.75h10.47V1.06h-10.47Z"/>
    <path class="cls-1" d="M105.11,1.06v57.75h10.46V1.06h-10.46Z"/>
    <path class="cls-1" d="M192.21,25.58c-1.71-3.37-4.11-5.98-7.21-7.85-3.1-1.86-6.77-2.79-11-2.79s-7.91.93-11.01,2.79c-3.1,1.87-5.5,4.47-7.18,7.85-1.7,3.37-2.54,7.29-2.54,11.77s.84,8.34,2.54,11.7c1.69,3.36,4.09,5.97,7.18,7.83,3.11,1.87,6.78,2.8,11.01,2.8s7.91-.93,11-2.8c3.11-1.86,5.51-4.46,7.21-7.83,1.7-3.35,2.55-7.25,2.55-11.7s-.85-8.39-2.55-11.77ZM183.24,44.47c-.76,2.15-1.9,3.85-3.42,5.1-1.53,1.25-3.46,1.89-5.81,1.89s-4.23-.63-5.77-1.89c-1.56-1.25-2.71-2.95-3.47-5.1-.76-2.14-1.14-4.51-1.14-7.12s.38-5.07,1.14-7.21c.76-2.14,1.91-3.84,3.47-5.1,1.55-1.25,3.47-1.88,5.77-1.88s4.29.63,5.81,1.88c1.52,1.26,2.66,2.96,3.42,5.1.76,2.14,1.15,4.55,1.15,7.21s-.39,4.98-1.15,7.12Z"/>
    <path class="cls-1" d="M229.18,1.06v21.59h-.43c-.52-1.03-1.26-2.15-2.22-3.35-.97-1.2-2.27-2.22-3.9-3.08-1.63-.85-3.72-1.28-6.28-1.28-3.33,0-6.34.85-9.03,2.56-2.69,1.71-4.82,4.21-6.41,7.52-1.6,3.3-2.39,7.37-2.39,12.2s.77,8.8,2.33,12.13c1.55,3.33,3.67,5.86,6.37,7.61,2.7,1.75,5.74,2.62,9.13,2.62,2.51,0,4.57-.42,6.2-1.26,1.63-.84,2.94-1.85,3.92-3.03.98-1.17,1.75-2.29,2.28-3.35h.62v6.87h9.96V1.06h-10.16ZM228.18,44.53c-.8,2.11-1.96,3.75-3.47,4.92-1.51,1.18-3.35,1.77-5.53,1.77s-4.13-.61-5.64-1.82c-1.51-1.22-2.66-2.89-3.43-5-.77-2.12-1.16-4.52-1.16-7.21s.38-5.08,1.14-7.17c.76-2.09,1.9-3.73,3.43-4.92,1.53-1.18,3.41-1.78,5.66-1.78s4.06.57,5.57,1.71c1.51,1.13,2.66,2.74,3.45,4.82.78,2.08,1.18,4.52,1.18,7.34s-.41,5.24-1.2,7.34Z"/>
    <path class="cls-1" d="M285.3,36.8c0-3.8-.53-7.07-1.59-9.82-1.06-2.76-2.51-5.02-4.36-6.81-1.85-1.78-3.97-3.1-6.36-3.95-2.39-.85-4.91-1.28-7.57-1.28-4.14,0-7.73.94-10.77,2.83-3.06,1.89-5.42,4.51-7.09,7.89-1.69,3.37-2.52,7.29-2.52,11.77s.84,8.44,2.54,11.78c1.69,3.33,4.11,5.91,7.26,7.73,3.15,1.83,6.9,2.74,11.24,2.74,3.35,0,6.34-.52,8.93-1.54,2.6-1.01,4.73-2.46,6.4-4.34s2.81-4.07,3.43-6.57l-9.53-1.12c-.47,1.24-1.13,2.27-2,3.12-.86.84-1.89,1.47-3.1,1.88-1.2.42-2.53.63-3.97.63-2.22,0-4.17-.49-5.83-1.48-1.67-.97-2.97-2.4-3.88-4.28-.82-1.69-1.28-3.68-1.36-5.99h30.13v-3.17ZM255.21,33.12c.13-1.63.52-3.14,1.14-4.51.8-1.75,1.98-3.14,3.53-4.17,1.55-1.03,3.42-1.55,5.62-1.55s4.04.52,5.51,1.55c1.47,1.03,2.58,2.46,3.33,4.29.54,1.3.87,2.77,1.02,4.4h-20.15Z"/>
    <polygon class="cls-1" points="132.06 30.01 154.38 1.06 141.63 1.06 119.74 29.87 141.98 58.82 154.58 58.82 132.06 30.01"/>
    <polygon class="cls-1" points="307.68 29.87 285.35 58.82 298.1 58.82 320 30.01 297.76 1.06 285.16 1.06 307.68 29.87"/>
</svg>
